<svg width="80" height="80" viewBox="0 0 80 80" fill="none" xmlns="http://www.w3.org/2000/svg">
  <path d="M61.2401 10.3517v.7579l-18.2089-5.75a7.6906 7.6906 0 0 0-6.4605.8475l-7.5357 4.7955a7.6641 7.6641 0 0 0-3.4754 5.3116H8.7701a1.1927 1.1927 0 0 0-1.1925 1.1925v26.235A1.1924 1.1924 0 0 0 8.77 44.9342h50.085a1.1924 1.1924 0 0 0 1.1925-1.1925V31.006a7.9357 7.9357 0 0 0 .4709-.3818h.7216v2.385a1.1924 1.1924 0 0 0 1.1925 1.1925h13.1175v-2.385h-11.925V11.5442h11.925v-2.385H62.4326a1.1927 1.1927 0 0 0-1.1925 1.1925Zm-18.7912 26.235a6.298 6.298 0 0 0 1.4078-.16 10.696 10.696 0 0 0-2.8213 6.1225h-6.0303v-23.85h.9029a3.8668 3.8668 0 0 1 2.7341 6.6011l-.6139.6137a6.2521 6.2521 0 0 0 4.4207 10.6727Zm8.0587-3.5096a10.6479 10.6479 0 0 0-2.5764.617l2.5764-2.5763v1.9593Zm0 2.4037v7.0684h-7.0685a8.3644 8.3644 0 0 1 7.0685-7.0684Zm-17.8875 7.0684h-4.77v-23.85h4.77v23.85Zm-7.155 0h-6.0304a10.7504 10.7504 0 0 0-9.4721-9.4721v-4.9057a10.7505 10.7505 0 0 0 9.4721-9.4722h6.0304v23.85Zm-8.4341-23.85a8.364 8.364 0 0 1-7.0684 7.0685v-7.0685h7.0684ZM9.9626 35.4808a8.3646 8.3646 0 0 1 7.0684 7.0684H9.9626v-7.0684Zm47.7 7.0684h-4.77V32.2307a7.992 7.992 0 0 0 4.77-.0001v10.3186Zm2.3847-14.3098c-.3162 0-.6195.1256-.8431.3492a5.5599 5.5599 0 0 1-7.8537-.0002 1.193 1.193 0 0 0-1.6864 0l-4.481 4.4808a3.868 3.868 0 0 1-2.7349 1.1345 3.8653 3.8653 0 0 1-2.7356-1.1326 3.8672 3.8672 0 0 1 .002-5.4705l.6139-.6137a6.2512 6.2512 0 0 0 1.3554-6.8132 6.2513 6.2513 0 0 0-5.7759-3.8595h-7.9251a5.2976 5.2976 0 0 1 2.3325-3.2996l7.5357-4.7955a5.311 5.311 0 0 1 4.4619-.5851l18.9271 5.9767v14.6287h-1.1928ZM11.155 74.7467v-1.1925h3.5775a1.1925 1.1925 0 0 0 1.1925-1.1925v-1.2603l.1127.0806a25.5405 25.5405 0 0 0 32.9042-2.7232l8.9676-8.9676a5.4081 5.4081 0 0 0-6.8871-8.2813 4.555 4.555 0 0 0-3.5184-2.5978 4.5545 4.5545 0 0 0-4.0844 1.564 4.6498 4.6498 0 0 0-4.17-.3062 4.6487 4.6487 0 0 0-2.7296 3.1672l-1.2536 5.0146H28.344l-.8433-.8433a9.6285 9.6285 0 0 0-11.5757-1.5555v-1.1787a1.192 1.192 0 0 0-.3493-.8432 1.192 1.192 0 0 0-.8432-.3493H11.155a1.192 1.192 0 0 0-.3493-.8432 1.192 1.192 0 0 0-.8432-.3493H4v2.385h4.77v19.08H4v2.385h5.9625a1.1925 1.1925 0 0 0 1.1925-1.1925Zm35.2096-23.7266a2.171 2.171 0 0 1 2.449 1.0983c.1498.286.234.6017.2463.9243l-8.3211 8.3211a4.7581 4.7581 0 0 0-.5927-1.2152l4.8835-8.1392a2.1574 2.1574 0 0 1 1.335-.9893Zm-7.5308 2.5955a2.266 2.266 0 0 1 1.9936-1.7064 2.2643 2.2643 0 0 1 .9201.107c.1359.0456.2672.1039.3921.1741l-3.8175 6.3625a4.7215 4.7215 0 0 0-.6554-.2686l1.1671-4.6686ZM20.695 56.7743a7.1926 7.1926 0 0 1 5.1193 2.1207l1.1925 1.1925c.2236.2236.5269.3492.8432.3492h8.3475a2.3847 2.3847 0 0 1 2.385 2.385 2.3848 2.3848 0 0 1-2.385 2.385H25.465v2.385h10.7325a4.774 4.774 0 0 0 4.2027-2.5163L51.947 53.5287a3.0234 3.0234 0 0 1 4.276 4.2759l-8.9675 8.9677a23.1553 23.1553 0 0 1-29.8315 2.469l-1.499-1.0708V58.57a7.1854 7.1854 0 0 1 4.77-1.7957Zm-7.155-1.1076v15.5025h-2.385V55.6667h2.385Z" fill="#63A63E"/>
</svg>
