<svg width="24" height="24" viewBox="0 0 24 24" fill="none" xmlns="http://www.w3.org/2000/svg">
  <path fill-rule="evenodd" clip-rule="evenodd" d="m16.382 7 1.8423 3.6847L21 12.5352V16h-1.1707c-.4118-1.1652-1.5231-2-2.8293-2s-2.4175.8348-2.8293 2H9.8293C9.4175 14.8348 8.3063 14 7 14c-1.3062 0-2.4175.8348-2.8293 2H3V7h13.382ZM21 18h-1.1707c-.4118 1.1652-1.5231 2-2.8293 2s-2.4175-.8348-2.8293-2H9.8293C9.4175 19.1652 8.3063 20 7 20c-1.3062 0-2.4175-.8348-2.8293-2H3c-1.1046 0-2-.8954-2-2V7c0-1.1046.8954-2 2-2h13.382a2 2 0 0 1 1.7888 1.1056l1.6049 3.2097L23 11.4648V16c0 1.1046-.8954 2-2 2ZM8 17c0 .5523-.4477 1-1 1s-1-.4477-1-1 .4477-1 1-1 1 .4477 1 1Zm10 0c0 .5523-.4477 1-1 1s-1-.4477-1-1 .4477-1 1-1 1 .4477 1 1Z" fill="#000"/>
</svg>
