<svg width="80" height="80" viewBox="0 0 80 80" xmlns="http://www.w3.org/2000/svg">
  <path d="M74.8565 15.5426H69.814v-1.2607c0-2.0887-1.6933-3.7819-3.782-3.7819h-7.5638v.029a4.9746 4.9746 0 0 0-3.1365 1.0816L40.291 23.7367a3.7691 3.7691 0 0 0-3.2537-1.8909H16.8671c-2.0887 0-3.782 1.6932-3.782 3.7819v8.8245H6.7819C4.6932 34.4522 3 36.1454 3 38.2341v17.649a3.7818 3.7818 0 0 0 2.5326 3.5537c0 .0757-.0113.1513-.0113.2282 0 4.8736 3.9508 8.8245 8.8245 8.8245 4.8736 0 8.8245-3.9509 8.8245-8.8245h7.5638c-.0055 4.7111 3.6906 8.5957 8.3961 8.8244 4.7055.2287 8.7609-3.2792 9.2123-7.9686.4513-4.6894-2.8605-8.9064-7.5233-9.5794V40.8562l17.741-18.1998c.3804 1.7335 1.9151 2.9693 3.6899 2.9713h2.5213v7.5638c0 1.3925 1.1288 2.5213 2.5213 2.5213v10.1583c-3.6193.3895-6.3032 2.4292-6.3032 4.9694 0 2.5402 2.6839 4.5799 6.3032 4.9695v10.1582c0 .6962.5644 1.2606 1.2606 1.2606.6963 0 1.2607-.5644 1.2607-1.2606v-2.5944c3.6193-.3895 6.3032-2.4293 6.3032-4.9694 0-2.5402-2.6839-4.58-6.3032-4.9695v-5.1888c3.6193-.3895 6.3032-2.4292 6.3032-4.9694 0-2.5402-2.6839-4.5799-6.3032-4.9695v-2.5944c1.3924 0 2.5213-1.1288 2.5213-2.5213v-7.5638h2.5212c2.0887 0 3.782-1.6932 3.782-3.7819v-2.5213c0-2.0887-1.6933-3.7819-3.782-3.7819ZM63.5108 50.8405c0-1.0085 1.5556-2.109 3.7819-2.4242v4.8484c-2.2263-.3151-3.7819-1.4157-3.7819-2.4242Zm10.0851 7.5639c0 1.0085-1.5556 2.109-3.7819 2.4242v-4.8485c2.2263.3152 3.7819 1.4157 3.7819 2.4243Zm0-15.1277c0 1.0085-1.5556 2.109-3.7819 2.4242v-4.8484c2.2263.3151 3.7819 1.4157 3.7819 2.4242Zm-6.3032-28.9948v1.2607h-3.7996a5.0055 5.0055 0 0 0-.6631-2.5213h3.202c.6963 0 1.2607.5644 1.2607 1.2606ZM38.2979 25.6277v17.649H23.1703c-.6963 0-1.2607-.5644-1.2607-1.2607V24.3671h15.1277c.6962 0 1.2606.5644 1.2606 1.2606ZM5.5213 55.8831v-17.649c0-.6962.5644-1.2606 1.2606-1.2606h6.3032v13.9679c-3.2847.4791-6.024 2.7582-7.0923 5.901a1.2379 1.2379 0 0 1-.4715-.9593Zm8.8245 10.0851c-3.4812 0-6.3032-2.822-6.3032-6.3032 0-3.4812 2.822-6.3032 6.3032-6.3032 3.4811 0 6.3032 2.822 6.3032 6.3032-.0042 3.4794-2.8238 6.299-6.3032 6.3032Zm8.4526-8.8245c-.9889-3.289-3.7933-5.7076-7.192-6.2023V25.6277c0-.6962.5644-1.2606 1.2607-1.2606h2.5212V42.016c0 2.0887 1.6933 3.7819 3.782 3.7819h15.1276v5.1435c-3.3962.497-6.1977 2.9151-7.1856 6.2023h-8.3139Zm23.0634 2.5213c0 3.4812-2.822 6.3032-6.3032 6.3032-3.4812 0-6.3032-2.822-6.3032-6.3032 0-3.4812 2.822-6.3032 6.3032-6.3032 3.4794.0042 6.299 2.8238 6.3032 6.3032Zm-5.0426-33.1183 16.0946-12.972a2.51 2.51 0 0 1 3.5298.3908 2.4331 2.4331 0 0 1 .5257 1.8166 3.7692 3.7692 0 0 0-2.4746 3.3356l-17.6755 18.123v-10.694Zm28.9948 6.6448h-2.5213v-7.5638h2.5213v7.5638Zm6.3032-11.3457c0 .6962-.5644 1.2606-1.2607 1.2606H62.2501c-.6962 0-1.2606-.5644-1.2606-1.2606v-2.5213c0-.6962.5644-1.2607 1.2606-1.2607h12.6064c.6963 0 1.2607.5645 1.2607 1.2607v2.5213Z" fill="#fff"/>
  <path d="M25.6916 30.6702c.3343 0 .6549-.1329.8912-.3693l1.2607-1.2607c.4777-.4946.4709-1.2809-.0154-1.7672-.4863-.4862-1.2725-.4931-1.7672-.0153l-1.2606 1.2606a1.2607 1.2607 0 0 0 .8913 2.1519ZM25.6916 36.9735a1.2607 1.2607 0 0 0 .8912-.3694l7.5639-7.5639c.4777-.4946.4709-1.2809-.0154-1.7672-.4863-.4862-1.2725-.4931-1.7672-.0153l-7.5638 7.5638a1.261 1.261 0 0 0-.2732 1.3737 1.261 1.261 0 0 0 1.1645.7783ZM14.3457 55.8831c-2.0887 0-3.7819 1.6932-3.7819 3.7819s1.6932 3.7819 3.7819 3.7819 3.7819-1.6932 3.7819-3.7819-1.6932-3.7819-3.7819-3.7819Zm0 5.0425c-.6962 0-1.2607-.5644-1.2607-1.2606 0-.6963.5645-1.2607 1.2607-1.2607.6962 0 1.2606.5644 1.2606 1.2607 0 .6962-.5644 1.2606-1.2606 1.2606ZM35.7767 59.665c0 2.0887 1.6932 3.7819 3.7819 3.7819s3.7819-1.6932 3.7819-3.7819-1.6932-3.7819-3.7819-3.7819-3.7819 1.6932-3.7819 3.7819Zm5.0425 0c0 .6962-.5644 1.2606-1.2606 1.2606-.6963 0-1.2607-.5644-1.2607-1.2606 0-.6963.5644-1.2607 1.2607-1.2607.6962 0 1.2606.5644 1.2606 1.2607ZM24.4308 48.3192h-1.2606c-.6963 0-1.2607.5644-1.2607 1.2607 0 .6962.5644 1.2606 1.2607 1.2606h1.2606c.6962 0 1.2606-.5644 1.2606-1.2606 0-.6963-.5644-1.2607-1.2606-1.2607Z" fill="#fff"/>
</svg>
