<svg width="21" height="20" viewBox="0 0 21 20" fill="none" xmlns="http://www.w3.org/2000/svg">
  <g clip-path="url(#a)" fill="#000">
    <path d="M19.49 3.51h-5.83v-.68A2.729 2.729 0 0 0 10.935.106H9.511A2.729 2.729 0 0 0 6.787 2.83v.68H.937a.83.83 0 0 0-.83.83c0 .468.361.83.83.83h1.148l1.021 12.298c.107 1.362 1.277 2.426 2.639 2.426h8.915c1.361 0 2.531-1.064 2.638-2.426L18.319 5.17h1.149a.83.83 0 0 0 .83-.83c0-.468-.34-.83-.809-.83ZM8.424 2.83c0-.596.49-1.064 1.086-1.064h1.425c.596 0 1.085.49 1.085 1.064v.68H8.425v-.68Zm7.234 14.49c-.042.51-.489.914-1 .914H5.766c-.51 0-.958-.404-1-.915L3.745 5.17H16.66l-1 12.15Z"/>
    <path d="M8.021 16.191a.83.83 0 0 0 .83-.83V8.043a.83.83 0 0 0-1.66 0v7.34c0 .448.362.81.83.81ZM12.404 16.191a.83.83 0 0 0 .83-.83V8.043a.83.83 0 0 0-1.66 0v7.34a.84.84 0 0 0 .83.81Z"/>
  </g>
  <defs>
    <clipPath id="a">
      <path fill="#fff" d="M0 0h20.425v20H0z"/>
    </clipPath>
  </defs>
</svg>
