<svg xmlns="http://www.w3.org/2000/svg">
  <symbol id="paints" viewBox="0 0 80 80">
    <path d="M70.6 16.2h-7.933v-2.267a3.41 3.41 0 0 0-3.4-3.4h-7.934v-3.4A1.133 1.133 0 0 0 50.2 6H7.133A1.133 1.133 0 0 0 6 7.133V70.6a1.133 1.133 0 0 0 1.133 1.133h34.204A3.412 3.412 0 0 0 44.533 74h6.8a3.41 3.41 0 0 0 3.4-3.4V51.333h1.134A1.134 1.134 0 0 0 57 50.2v-4.533a1.133 1.133 0 0 0-1.133-1.134h-4.534V40H70.6a3.41 3.41 0 0 0 3.4-3.4v-17a3.41 3.41 0 0 0-3.4-3.4Zm-7.933 9.067V23H67.2v10.2H51.333v-4.533h7.934a3.41 3.41 0 0 0 3.4-3.4Zm-3.4-12.467a1.134 1.134 0 0 1 1.133 1.133v11.334a1.134 1.134 0 0 1-1.133 1.133h-40.8a1.133 1.133 0 0 1-1.134-1.133V13.933a1.133 1.133 0 0 1 1.134-1.133h40.8Zm-24.934 17a3.41 3.41 0 0 0-3.4 3.4v7.933a1.133 1.133 0 1 1-2.266 0v-3.4a3.4 3.4 0 1 0-6.8 0V50.2a1.133 1.133 0 0 1-2.267 0V28.667H40v9.066a1.133 1.133 0 1 1-2.267 0V33.2a3.41 3.41 0 0 0-3.4-3.4Zm6.8 39.667H8.267v-61.2h40.8v2.266h-30.6a3.41 3.41 0 0 0-3.4 3.4V16.2h-1.134a2.274 2.274 0 0 0-2.266 2.267v2.266A2.273 2.273 0 0 0 13.933 23h1.134v2.267a3.41 3.41 0 0 0 2.266 3.196V50.2a3.4 3.4 0 0 0 6.8 0V37.733a1.133 1.133 0 0 1 2.267 0v3.4a3.4 3.4 0 1 0 6.8 0V33.2a1.134 1.134 0 0 1 2.267 0v4.533a3.4 3.4 0 1 0 6.8 0v-9.066h6.8V33.2h-1.134a3.41 3.41 0 0 0-3.4 3.4v7.933H40a1.133 1.133 0 0 0-1.133 1.134V50.2A1.134 1.134 0 0 0 40 51.333h1.133v18.134Zm-26.066-51v2.266h-1.134v-2.266h1.134Zm37.4 52.133a1.133 1.133 0 0 1-1.134 1.133h-6.8A1.134 1.134 0 0 1 43.4 70.6V51.333h9.067V70.6Zm2.266-23.8v2.267h-13.6V46.8h13.6Zm17-10.2a1.134 1.134 0 0 1-1.133 1.133H51.333A2.274 2.274 0 0 0 49.067 40v4.533H46.8V36.6a1.134 1.134 0 0 1 1.133-1.133H67.2a2.274 2.274 0 0 0 2.267-2.267V23a2.274 2.274 0 0 0-2.267-2.267h-4.533v-2.266H70.6a1.134 1.134 0 0 1 1.133 1.133v17Z"/>
    <path d="M20.733 55.867a3.4 3.4 0 1 0 0 6.8 3.4 3.4 0 0 0 0-6.8Zm0 4.533a1.133 1.133 0 1 1 0-2.266 1.133 1.133 0 0 1 0 2.266ZM29.8 46.8a3.4 3.4 0 1 0 0 6.8 3.4 3.4 0 0 0 0-6.8Zm0 4.533a1.134 1.134 0 1 1 0-2.267 1.134 1.134 0 0 1 0 2.267ZM19.6 16.2a1.134 1.134 0 0 0 1.133 1.133h30.6a1.133 1.133 0 1 0 0-2.266h-30.6A1.134 1.134 0 0 0 19.6 16.2ZM55.867 17.333H57a1.133 1.133 0 1 0 0-2.266h-1.133a1.134 1.134 0 0 0 0 2.266Z"/>
  </symbol>
  <symbol id="sale" viewBox="0 0 80 80">
    <path d="M72.988 17.802h-2.974l.003-5.315a6.479 6.479 0 0 0-6.468-6.474L40.985 6h-.003c-1.284 0-2.492.5-3.4 1.409L3.894 41.095A6.428 6.428 0 0 0 2 45.67c0 1.728.673 3.353 1.895 4.576l21.861 21.86A6.452 6.452 0 0 0 30.332 74c1.658 0 3.315-.63 4.577-1.892l21.209-21.21a1.485 1.485 0 1 0-2.1-2.1l-21.21 21.21a3.505 3.505 0 0 1-4.951 0L5.996 48.147A3.48 3.48 0 0 1 4.97 45.67c0-.935.365-1.815 1.026-2.476L39.68 9.509c.348-.347.81-.539 1.301-.539h.001l22.564.013a3.505 3.505 0 0 1 3.5 3.503l-.007 12.445h-6.69a2.073 2.073 0 0 1-1.474-.615 5.449 5.449 0 0 0 1.71-1.157 5.48 5.48 0 0 0 0-7.742 5.48 5.48 0 0 0-7.742 0 5.48 5.48 0 0 0 0 7.742 5.446 5.446 0 0 0 2.79 1.493 5.058 5.058 0 0 0 4.717 3.25h6.688l-.005 7.118c0 .492-.191.953-.538 1.3l-4.077 4.077a1.485 1.485 0 1 0 2.1 2.101l4.077-4.078a4.78 4.78 0 0 0 1.409-3.398l.004-7.12h2.979a5.055 5.055 0 0 0 5.049-5.05 5.055 5.055 0 0 0-5.05-5.05Zm-18.043-.285a2.496 2.496 0 0 1 1.77-.732 2.498 2.498 0 0 1 2.159 1.238 5.07 5.07 0 0 0-3.38 3.449 2.489 2.489 0 0 1-.55-.413 2.507 2.507 0 0 1 0-3.542Zm18.043 7.414H70.01l.003-4.158h2.975c1.146 0 2.079.933 2.079 2.079 0 1.146-.933 2.079-2.08 2.079Z"/>
    <path d="M25.971 43.47a1.485 1.485 0 0 0 1.829 1.032l15.245-4.243a1.485 1.485 0 0 0-.796-2.861L27.003 41.64a1.486 1.486 0 0 0-1.032 1.829ZM32.682 45.43a4.35 4.35 0 0 0-1.282 3.096 4.35 4.35 0 0 0 1.282 3.096 4.366 4.366 0 0 0 3.096 1.28 4.368 4.368 0 0 0 3.097-1.28 4.384 4.384 0 0 0 0-6.193 4.384 4.384 0 0 0-6.193 0Zm4.092 4.091a1.41 1.41 0 0 1-2.404-.996 1.407 1.407 0 0 1 2.405-.996c.549.55.549 1.444 0 1.992ZM39.61 36.587a4.384 4.384 0 0 0 0-6.193 4.35 4.35 0 0 0-3.096-1.282c-1.17 0-2.27.455-3.096 1.283a4.384 4.384 0 0 0 0 6.192 4.366 4.366 0 0 0 3.096 1.28 4.368 4.368 0 0 0 3.097-1.28Zm-4.092-4.093a1.4 1.4 0 0 1 .996-.412 1.41 1.41 0 0 1 .996 2.405 1.41 1.41 0 0 1-1.992 0 1.411 1.411 0 0 1 0-1.992Z"/>
    <path d="M16.771 40.4c-.58-.58-1.52-.58-2.1 0l-4.22 4.22a1.485 1.485 0 0 0 0 2.1l18.832 18.833c.29.29.67.434 1.05.434s.76-.145 1.05-.434l28.156-28.157c.58-.58.58-1.52 0-2.1L40.708 16.463a1.485 1.485 0 0 0-2.1 0L23.072 32a1.485 1.485 0 0 0 2.1 2.1l14.486-14.486 16.731 16.732-26.056 26.056L13.6 45.671l3.17-3.17c.58-.58.58-1.52 0-2.1ZM59.268 44.163c-.39 0-.773.159-1.05.435-.276.276-.435.66-.435 1.05s.16.774.435 1.05c.277.276.66.435 1.05.435s.774-.159 1.05-.435c.277-.276.436-.66.436-1.05s-.16-.774-.436-1.05a1.498 1.498 0 0 0-1.05-.435Z"/>
    <path d="M20.97 38.3a1.487 1.487 0 0 0 0-2.1 1.494 1.494 0 0 0-1.05-.436c-.39 0-.773.16-1.05.436-.276.276-.434.66-.434 1.05 0 .392.158.773.435 1.05a1.486 1.486 0 0 0 2.1 0Z"/>
  </symbol>
  <symbol id="delivery" viewBox="0 0 80 80">
    <path d="M64.0203 30.0097H59.1972L60.6504 13.3249C60.653 13.2947 60.6535 13.2649 60.6536 13.2351C60.6536 13.2326 60.6539 13.2302 60.6539 13.2276C60.6539 13.2272 60.6539 13.2269 60.6539 13.2265C60.6539 12.7723 60.38 12.3721 59.9773 12.1981C59.9739 12.1966 59.9706 12.1948 59.9672 12.1933C59.9422 12.1828 59.9163 12.1738 59.8902 12.1651C59.8805 12.162 59.8712 12.1581 59.8615 12.1551C59.8403 12.1487 59.8184 12.1436 59.7967 12.1384C59.7815 12.1348 59.7668 12.1304 59.7514 12.1274C59.7324 12.1237 59.7126 12.1213 59.6932 12.1185C59.6749 12.1158 59.657 12.1126 59.6386 12.111C59.6354 12.1107 59.6326 12.1101 59.6294 12.1098C59.6097 12.108 59.5902 12.1083 59.5706 12.1075C59.5575 12.1071 59.5446 12.1056 59.5314 12.1056H59.5174C59.5162 12.1056 59.515 12.1056 59.5139 12.1056H36.5654C35.946 12.1056 35.4432 12.6083 35.4432 13.2278C35.4432 13.8458 35.946 14.35 36.5654 14.35H58.3082L56.0749 39.9924C56.0746 39.9943 56.0746 39.9963 56.0743 39.9982L55.5108 46.4683H16.5166L17.1688 39.7353H24.5934C25.2133 39.7353 25.7156 39.2329 25.7156 38.6131C25.7156 37.9934 25.2133 37.4909 24.5934 37.4909H17.3863L18.7635 23.2771H30.5803C31.2002 23.2771 31.7025 22.7746 31.7025 22.1549C31.7025 21.5351 31.2002 21.0327 30.5803 21.0327H18.9811L19.6287 14.35H32.0766C32.6946 14.35 33.1988 13.8458 33.1988 13.2278C33.1988 12.6083 32.6946 12.1056 32.0766 12.1056H18.6101C18.6095 12.1056 18.6091 12.1057 18.6085 12.1057C18.0814 12.1056 17.6241 12.4767 17.5135 12.9911C17.5128 12.9948 17.5114 12.9984 17.5107 13.0022C17.505 13.0301 17.5012 13.0587 17.4975 13.0874C17.4965 13.0966 17.4945 13.1053 17.4936 13.1144C17.4935 13.1162 17.493 13.1178 17.4929 13.1196L16.7262 21.0327H3.12221C2.5023 21.0327 2 21.5351 2 22.1549C2 22.7746 2.5023 23.2771 3.12221 23.2771H16.5086L15.1315 37.4909H11.1276C10.5077 37.4909 10.0054 37.9934 10.0054 38.6131C10.0054 39.2329 10.5077 39.7353 11.1276 39.7353H14.914L14.1641 47.4742C14.164 47.4754 14.164 47.4766 14.1638 47.4777L13.0043 59.4447C13.0042 59.4461 13.004 59.4475 13.0039 59.4487L13.0034 59.4531C13.002 59.4686 13.0021 59.4839 13.0012 59.4995C13.0002 59.5201 12.9981 59.5403 12.9981 59.5613C12.9981 59.5622 12.9982 59.5631 12.9982 59.5641C12.9982 59.593 13.0003 59.6214 13.0024 59.6498C13.0033 59.659 13.003 59.6683 13.004 59.6772C13.007 59.7063 13.012 59.7348 13.0172 59.7633C13.0187 59.7716 13.0195 59.7802 13.0211 59.7884C13.0254 59.8099 13.0316 59.8307 13.0373 59.8518C13.0412 59.8667 13.0443 59.8818 13.0488 59.8963C13.0501 59.9003 13.0519 59.9042 13.0531 59.9084C13.1074 60.0754 13.1996 60.2253 13.3199 60.3477C13.3222 60.35 13.324 60.3525 13.3262 60.3546C13.3382 60.3666 13.3512 60.3773 13.3638 60.3887C13.4411 60.4596 13.5285 60.5198 13.6241 60.5669C13.644 60.5768 13.6636 60.5871 13.684 60.5956C13.6901 60.5983 13.6967 60.6001 13.703 60.6025C13.7311 60.6137 13.7594 60.6245 13.7885 60.6336C13.7912 60.6344 13.7938 60.6348 13.7965 60.6357C13.8297 60.6456 13.8632 60.6543 13.8975 60.6613C13.902 60.6622 13.9066 60.6625 13.9109 60.6634C13.9436 60.6696 13.9763 60.6748 14.0097 60.6781C14.0104 60.6781 14.011 60.6782 14.0118 60.6784C14.0486 60.682 14.0851 60.6838 14.1213 60.6838C14.1218 60.6838 14.1224 60.6836 14.123 60.6836H19.1187C19.6704 64.8662 23.2562 68.1056 27.5872 68.1056C31.9178 68.1056 35.5037 64.8662 36.0553 60.6836H54.0554C54.6072 64.8662 58.1929 68.1056 62.5237 68.1056C66.8544 68.1056 70.4405 64.8662 70.9923 60.6836H75.9893C75.99 60.6836 75.9909 60.6838 75.9917 60.6838C76.0291 60.6838 76.0659 60.6815 76.1024 60.6779C76.109 60.6773 76.1152 60.676 76.1218 60.6752C76.151 60.6718 76.18 60.6678 76.2085 60.6621C76.2207 60.6597 76.2325 60.6564 76.2447 60.6535C76.2667 60.6485 76.2888 60.6431 76.3104 60.6366C76.325 60.6323 76.3392 60.6272 76.3536 60.6223C76.372 60.616 76.3904 60.6094 76.4085 60.6021C76.4241 60.5959 76.4389 60.5892 76.454 60.5825C76.4705 60.5748 76.4869 60.5671 76.5029 60.5588C76.5182 60.5511 76.5329 60.543 76.5475 60.5346C76.5629 60.5256 76.5782 60.5163 76.5933 60.5068C76.6074 60.4978 76.6214 60.4887 76.6349 60.4791C76.6502 60.4685 76.6647 60.4572 76.6795 60.4459C76.6918 60.4361 76.7042 60.4266 76.7161 60.4164C76.7316 60.4034 76.7461 60.3898 76.7607 60.3758C76.7709 60.3661 76.7815 60.3565 76.7914 60.3464C76.807 60.3305 76.8218 60.3137 76.8366 60.2968C76.8445 60.2877 76.8528 60.2789 76.8604 60.2696C76.8768 60.2493 76.8918 60.2283 76.9068 60.2072C76.9119 60.1999 76.9175 60.193 76.9225 60.1855C76.9407 60.1581 76.9579 60.13 76.9738 60.101C76.975 60.0992 76.9762 60.0975 76.9769 60.0956C76.9939 60.0645 77.0094 60.0326 77.0233 59.9997C77.0272 59.9902 77.0302 59.9805 77.034 59.9711C77.0431 59.9479 77.0521 59.9247 77.0597 59.9006C77.0646 59.8851 77.0682 59.8691 77.0726 59.8533C77.0775 59.8346 77.0827 59.8161 77.0869 59.7971C77.0907 59.7802 77.0931 59.7628 77.0959 59.7456C77.0984 59.7305 77.1017 59.7157 77.1037 59.7003C77.1513 59.319 78.03 52.2687 78.4225 47.7099C78.4229 47.7055 78.4231 47.7011 78.4235 47.6967C78.5365 46.3825 78.6089 45.2759 78.6089 44.5984C78.6089 36.5543 72.0645 30.0097 64.0203 30.0097ZM59.0016 32.2544H63.5926L63.0062 38.9871H58.4152L59.0016 32.2544ZM27.5875 65.861C24.1136 65.861 21.2874 63.0349 21.2874 59.5611C21.2874 56.0874 24.1137 53.2612 27.5875 53.2612C31.0612 53.2612 33.8874 56.0874 33.8874 59.5611C33.8874 63.0349 31.0612 65.861 27.5875 65.861ZM62.5237 65.861C59.0499 65.861 56.2239 63.0349 56.2239 59.5611C56.2239 56.0874 59.0501 53.2612 62.5237 53.2612C65.9976 53.2612 68.8237 56.0874 68.8237 59.5611C68.8237 63.0349 65.9976 65.861 62.5237 65.861ZM74.9977 58.4385H70.9926C70.4411 54.2556 66.8551 51.016 62.524 51.016C58.1932 51.016 54.6072 54.2558 54.0557 58.4385H36.0558C35.5043 54.2556 31.9184 51.016 27.5875 51.016C23.2565 51.016 19.6704 54.2558 19.1189 58.4385H15.3566L16.2991 48.7121H56.5392V48.7127C56.5398 48.7127 56.5402 48.7127 56.5408 48.7127C56.5784 48.7127 56.6156 48.7106 56.6525 48.7068C56.6593 48.7062 56.6661 48.7048 56.673 48.7039C56.7023 48.7004 56.7315 48.6962 56.7602 48.6905C56.7726 48.688 56.7847 48.6846 56.797 48.6816C56.8194 48.6762 56.8419 48.6709 56.8637 48.6644C56.8787 48.6599 56.8929 48.6545 56.9074 48.6494C56.9263 48.6428 56.9451 48.6364 56.9634 48.6289C56.9791 48.6225 56.9942 48.6153 57.0095 48.6081C57.0261 48.6005 57.0427 48.5928 57.0587 48.5845C57.074 48.5764 57.0889 48.5677 57.104 48.559C57.1194 48.55 57.1347 48.5409 57.1497 48.5313C57.1642 48.5219 57.1779 48.512 57.1919 48.5022C57.2067 48.4917 57.221 48.4809 57.2354 48.4697C57.2483 48.4594 57.261 48.4487 57.2736 48.4378C57.2878 48.4255 57.3017 48.413 57.3152 48.4C57.3265 48.389 57.3379 48.3778 57.349 48.3663C57.3624 48.3522 57.3755 48.3377 57.3883 48.3229C57.3983 48.3112 57.4082 48.2996 57.4178 48.2876C57.4302 48.2719 57.442 48.2557 57.4537 48.2394C57.4625 48.2271 57.4711 48.2149 57.4794 48.2023C57.4904 48.1854 57.5008 48.168 57.5109 48.1504C57.5185 48.1372 57.5263 48.124 57.5332 48.1106C57.5426 48.0929 57.5507 48.075 57.5592 48.0569C57.5658 48.0424 57.5725 48.0281 57.5785 48.0132C57.5858 47.9955 57.592 47.9774 57.5984 47.9593C57.6039 47.9433 57.6098 47.9273 57.6147 47.9108C57.6196 47.8935 57.6237 47.8757 57.6282 47.858C57.6325 47.8402 57.6373 47.8225 57.6407 47.8044C57.6442 47.7868 57.6463 47.7688 57.649 47.7509C57.6517 47.7323 57.6548 47.7141 57.6566 47.6952C57.6569 47.6925 57.6575 47.69 57.6577 47.6873L58.2201 41.2309H64.02C67.4582 41.2309 69.009 43.0123 70.6505 44.8985C72.0051 46.4548 73.5174 48.1912 76.088 48.6148C75.7615 52.0667 75.2338 56.4981 74.9977 58.4385ZM76.2798 46.3659C74.6122 46.026 73.5862 44.8536 72.3433 43.4256C70.7888 41.6398 68.8911 39.4605 65.2532 39.0544L65.8337 32.3888C71.7835 33.2687 76.3645 38.4081 76.3645 44.5987C76.3645 45.0193 76.3331 45.6304 76.2798 46.3659Z"/>
    <path d="M27.5875 55.4462C25.3187 55.4462 23.4727 57.292 23.4727 59.5609C23.4727 61.8299 25.3187 63.6757 27.5875 63.6757C29.8563 63.6757 31.7023 61.8299 31.7023 59.5609C31.7023 57.2921 29.8563 55.4462 27.5875 55.4462ZM27.5875 61.4313C26.5561 61.4313 25.7172 60.5923 25.7172 59.5609C25.7172 58.5295 26.5561 57.6906 27.5875 57.6906C28.6189 57.6906 29.4578 58.5295 29.4578 59.5609C29.4578 60.5923 28.6187 61.4313 27.5875 61.4313Z"/>
    <path d="M62.5237 55.4462C60.2549 55.4462 58.4089 57.292 58.4089 59.5609C58.4089 61.8299 60.2549 63.6757 62.5237 63.6757C64.7925 63.6757 66.6384 61.8299 66.6384 59.5609C66.6384 57.2921 64.7925 55.4462 62.5237 55.4462ZM62.5237 61.4313C61.4923 61.4313 60.6533 60.5923 60.6533 59.5609C60.6533 58.5295 61.4923 57.6906 62.5237 57.6906C63.555 57.6906 64.394 58.5295 64.394 59.5609C64.394 60.5923 63.555 61.4313 62.5237 61.4313Z"/>
    <path d="M12.6235 30.01H7.13725C6.51734 30.01 6.01505 30.5125 6.01505 31.1322C6.01505 31.752 6.51734 32.2544 7.13725 32.2544H12.6235C13.2434 32.2544 13.7457 31.752 13.7457 31.1322C13.7457 30.5125 13.2434 30.01 12.6235 30.01Z"/>
  </symbol>
  <symbol id="tool" viewBox="0 0 80 80">
    <path d="M65.449 8.064H39.657a2.913 2.913 0 0 0-2.886 2.54h-3.755a2.506 2.506 0 0 0-2.505 2.5v.207H26.57a6.892 6.892 0 0 0-6.792 5.75H2.122a1.122 1.122 0 1 0 0 2.245h17.656a6.893 6.893 0 0 0 6.792 5.754h3.941v.207a2.506 2.506 0 0 0 2.505 2.501h3.755a2.913 2.913 0 0 0 2.886 2.54h1.688c.275 1.882.709 4.99-1.1 7.864-.47.74-.346 1.297-.16 1.636.185.337.588.739 1.455.739h4.694l-1.318 13.306h-4.45c-4.168 0-7.559 3.382-7.559 7.54v5.624a1.92 1.92 0 0 0 1.92 1.917h28.777a1.92 1.92 0 0 0 1.92-1.917V57.77a1.92 1.92 0 0 0-1.92-1.917h-3.11c.04-2.968.245-5.8.608-8.431a1.122 1.122 0 1 0-2.222-.307c-.378 2.732-.589 5.667-.63 8.738H47.172l1.416-14.309v-.01l.914-9.227h13.975c-1.587 2.868-2.791 6.086-3.662 9.778a1.122 1.122 0 1 0 2.184.515c.937-3.975 2.276-7.354 4.083-10.31 6.405-.33 11.515-5.633 11.515-12.106 0-6.683-5.45-12.12-12.148-12.12Zm-38.88 16.752a4.642 4.642 0 0 1-4.64-4.633c0-2.552 2.082-4.628 4.64-4.628h3.942v9.26H26.57v.001Zm6.186 2.45V13.105a.26.26 0 0 1 .26-.257h3.73v14.677h-3.73a.262.262 0 0 1-.26-.257ZM63.28 68.69H35.151v-5.297c0-2.92 2.385-5.297 5.316-5.297h1.617v2.298c0 2.123 2.323 4.122 4.124 4.122h17.07v4.174h.001Zm0-10.593v4.174H46.21c-.561 0-1.88-.982-1.88-1.878v-2.297h18.95ZM46.456 40.302h-3.724c1.47-3.055 1.148-6.108.88-7.996h3.635l-.791 7.995Zm18.993-10.24h-4.574v-6.841a1.122 1.122 0 1 0-2.244 0v6.84H39.657a.674.674 0 0 1-.668-.663V10.972c0-.36.306-.664.668-.664H58.63v7.743a1.122 1.122 0 1 0 2.244 0v-7.743h4.574c5.46 0 9.903 4.43 9.903 9.875 0 5.448-4.443 9.88-9.903 9.88Z"/>
    <path d="M64.63 17.453c-.62 0-1.122.503-1.122 1.123v3.215a1.122 1.122 0 1 0 2.244 0v-3.215c0-.62-.502-1.123-1.122-1.123ZM69.587 17.453c-.62 0-1.122.503-1.122 1.123v3.215a1.122 1.122 0 1 0 2.244 0v-3.215c0-.62-.502-1.123-1.122-1.123ZM50.737 13.087h-5.054a3.871 3.871 0 0 0-3.87 3.864 3.871 3.871 0 0 0 3.87 3.863h5.054a3.869 3.869 0 0 0 3.866-3.863 3.87 3.87 0 0 0-3.866-3.864Zm0 5.483h-5.054a1.625 1.625 0 0 1-1.626-1.62c0-.893.729-1.62 1.626-1.62h5.054c.895 0 1.622.727 1.622 1.62 0 .894-.727 1.62-1.622 1.62Z"/>
  </symbol>
  <symbol id="equipment" viewBox="0 0 80 80">
    <path d="M74.8565 15.5426H69.814v-1.2607c0-2.0887-1.6933-3.7819-3.782-3.7819h-7.5638v.029a4.9746 4.9746 0 0 0-3.1365 1.0816L40.291 23.7367a3.7691 3.7691 0 0 0-3.2537-1.8909H16.8671c-2.0887 0-3.782 1.6932-3.782 3.7819v8.8245H6.7819C4.6932 34.4522 3 36.1454 3 38.2341v17.649a3.7818 3.7818 0 0 0 2.5326 3.5537c0 .0757-.0113.1513-.0113.2282 0 4.8736 3.9508 8.8245 8.8245 8.8245 4.8736 0 8.8245-3.9509 8.8245-8.8245h7.5638c-.0055 4.7111 3.6906 8.5957 8.3961 8.8244 4.7055.2287 8.7609-3.2792 9.2123-7.9686.4513-4.6894-2.8605-8.9064-7.5233-9.5794V40.8562l17.741-18.1998c.3804 1.7335 1.9151 2.9693 3.6899 2.9713h2.5213v7.5638c0 1.3925 1.1288 2.5213 2.5213 2.5213v10.1583c-3.6193.3895-6.3032 2.4292-6.3032 4.9694 0 2.5402 2.6839 4.5799 6.3032 4.9695v10.1582c0 .6962.5644 1.2606 1.2606 1.2606.6963 0 1.2607-.5644 1.2607-1.2606v-2.5944c3.6193-.3895 6.3032-2.4293 6.3032-4.9694 0-2.5402-2.6839-4.58-6.3032-4.9695v-5.1888c3.6193-.3895 6.3032-2.4292 6.3032-4.9694 0-2.5402-2.6839-4.5799-6.3032-4.9695v-2.5944c1.3924 0 2.5213-1.1288 2.5213-2.5213v-7.5638h2.5212c2.0887 0 3.782-1.6932 3.782-3.7819v-2.5213c0-2.0887-1.6933-3.7819-3.782-3.7819ZM63.5108 50.8405c0-1.0085 1.5556-2.109 3.7819-2.4242v4.8484c-2.2263-.3151-3.7819-1.4157-3.7819-2.4242Zm10.0851 7.5639c0 1.0085-1.5556 2.109-3.7819 2.4242v-4.8485c2.2263.3152 3.7819 1.4157 3.7819 2.4243Zm0-15.1277c0 1.0085-1.5556 2.109-3.7819 2.4242v-4.8484c2.2263.3151 3.7819 1.4157 3.7819 2.4242Zm-6.3032-28.9948v1.2607h-3.7996a5.0055 5.0055 0 0 0-.6631-2.5213h3.202c.6963 0 1.2607.5644 1.2607 1.2606ZM38.2979 25.6277v17.649H23.1703c-.6963 0-1.2607-.5644-1.2607-1.2607V24.3671h15.1277c.6962 0 1.2606.5644 1.2606 1.2606ZM5.5213 55.8831v-17.649c0-.6962.5644-1.2606 1.2606-1.2606h6.3032v13.9679c-3.2847.4791-6.024 2.7582-7.0923 5.901a1.2379 1.2379 0 0 1-.4715-.9593Zm8.8245 10.0851c-3.4812 0-6.3032-2.822-6.3032-6.3032 0-3.4812 2.822-6.3032 6.3032-6.3032 3.4811 0 6.3032 2.822 6.3032 6.3032-.0042 3.4794-2.8238 6.299-6.3032 6.3032Zm8.4526-8.8245c-.9889-3.289-3.7933-5.7076-7.192-6.2023V25.6277c0-.6962.5644-1.2606 1.2607-1.2606h2.5212V42.016c0 2.0887 1.6933 3.7819 3.782 3.7819h15.1276v5.1435c-3.3962.497-6.1977 2.9151-7.1856 6.2023h-8.3139Zm23.0634 2.5213c0 3.4812-2.822 6.3032-6.3032 6.3032-3.4812 0-6.3032-2.822-6.3032-6.3032 0-3.4812 2.822-6.3032 6.3032-6.3032 3.4794.0042 6.299 2.8238 6.3032 6.3032Zm-5.0426-33.1183 16.0946-12.972a2.51 2.51 0 0 1 3.5298.3908 2.4331 2.4331 0 0 1 .5257 1.8166 3.7692 3.7692 0 0 0-2.4746 3.3356l-17.6755 18.123v-10.694Zm28.9948 6.6448h-2.5213v-7.5638h2.5213v7.5638Zm6.3032-11.3457c0 .6962-.5644 1.2606-1.2607 1.2606H62.2501c-.6962 0-1.2606-.5644-1.2606-1.2606v-2.5213c0-.6962.5644-1.2607 1.2606-1.2607h12.6064c.6963 0 1.2607.5645 1.2607 1.2607v2.5213Z"/>
    <path d="M25.6916 30.6702c.3343 0 .6549-.1329.8912-.3693l1.2607-1.2607c.4777-.4946.4709-1.2809-.0154-1.7672-.4863-.4862-1.2725-.4931-1.7672-.0153l-1.2606 1.2606a1.2607 1.2607 0 0 0 .8913 2.1519ZM25.6916 36.9735a1.2607 1.2607 0 0 0 .8912-.3694l7.5639-7.5639c.4777-.4946.4709-1.2809-.0154-1.7672-.4863-.4862-1.2725-.4931-1.7672-.0153l-7.5638 7.5638a1.261 1.261 0 0 0-.2732 1.3737 1.261 1.261 0 0 0 1.1645.7783ZM14.3457 55.8831c-2.0887 0-3.7819 1.6932-3.7819 3.7819s1.6932 3.7819 3.7819 3.7819 3.7819-1.6932 3.7819-3.7819-1.6932-3.7819-3.7819-3.7819Zm0 5.0425c-.6962 0-1.2607-.5644-1.2607-1.2606 0-.6963.5645-1.2607 1.2607-1.2607.6962 0 1.2606.5644 1.2606 1.2607 0 .6962-.5644 1.2606-1.2606 1.2606ZM35.7767 59.665c0 2.0887 1.6932 3.7819 3.7819 3.7819s3.7819-1.6932 3.7819-3.7819-1.6932-3.7819-3.7819-3.7819-3.7819 1.6932-3.7819 3.7819Zm5.0425 0c0 .6962-.5644 1.2606-1.2606 1.2606-.6963 0-1.2607-.5644-1.2607-1.2606 0-.6963.5644-1.2607 1.2607-1.2607.6962 0 1.2606.5644 1.2606 1.2607ZM24.4308 48.3192h-1.2606c-.6963 0-1.2607.5644-1.2607 1.2607 0 .6962.5644 1.2606 1.2607 1.2606h1.2606c.6962 0 1.2606-.5644 1.2606-1.2606 0-.6963-.5644-1.2607-1.2606-1.2607Z"/>
  </symbol>
  <svg id="arrow-right" viewBox="0 0 16 16">
    <path d="M9.586 8 4.293 2.707l1.414-1.414L12.414 8l-6.707 6.707-1.414-1.414L9.586 8Z"/>
  </svg>
</svg>
