<svg width="12" height="12" viewBox="0 0 12 12" fill="none" xmlns="http://www.w3.org/2000/svg">
  <path fill-rule="evenodd" clip-rule="evenodd" d="M6 12A6 6 0 1 0 6 0a6 6 0 0 0 0 12Zm.676-2.145a.473.473 0 0 0 .144-.345V5.383a.473.473 0 0 0-.144-.345.466.466 0 0 0-.343-.146h-.666a.466.466 0 0 0-.343.146.473.473 0 0 0-.144.345V9.51c0 .133.048.248.144.345.096.097.21.145.343.145h.666a.466.466 0 0 0 .343-.145Zm.18-5.985A.473.473 0 0 0 7 3.525V2.49a.473.473 0 0 0-.144-.345A.466.466 0 0 0 6.514 2H5.486a.466.466 0 0 0-.342.145A.473.473 0 0 0 5 2.49v1.035c0 .133.048.248.144.345.096.097.21.145.342.145h1.028a.466.466 0 0 0 .342-.145Z" fill="#242424"/>
</svg>
