<svg width="80" height="80" viewBox="0 0 80 80" fill="none" xmlns="http://www.w3.org/2000/svg">
  <path d="M70.6 16.2h-7.933v-2.267a3.41 3.41 0 0 0-3.4-3.4h-7.934v-3.4A1.133 1.133 0 0 0 50.2 6H7.133A1.133 1.133 0 0 0 6 7.133V70.6a1.133 1.133 0 0 0 1.133 1.133h34.204A3.412 3.412 0 0 0 44.533 74h6.8a3.41 3.41 0 0 0 3.4-3.4V51.333h1.134A1.134 1.134 0 0 0 57 50.2v-4.533a1.133 1.133 0 0 0-1.133-1.134h-4.534V40H70.6a3.41 3.41 0 0 0 3.4-3.4v-17a3.41 3.41 0 0 0-3.4-3.4Zm-7.933 9.067V23H67.2v10.2H51.333v-4.533h7.934a3.41 3.41 0 0 0 3.4-3.4Zm-3.4-12.467a1.134 1.134 0 0 1 1.133 1.133v11.334a1.134 1.134 0 0 1-1.133 1.133h-40.8a1.133 1.133 0 0 1-1.134-1.133V13.933a1.133 1.133 0 0 1 1.134-1.133h40.8Zm-24.934 17a3.41 3.41 0 0 0-3.4 3.4v7.933a1.133 1.133 0 1 1-2.266 0v-3.4a3.4 3.4 0 1 0-6.8 0V50.2a1.133 1.133 0 0 1-2.267 0V28.667H40v9.066a1.133 1.133 0 1 1-2.267 0V33.2a3.41 3.41 0 0 0-3.4-3.4Zm6.8 39.667H8.267v-61.2h40.8v2.266h-30.6a3.41 3.41 0 0 0-3.4 3.4V16.2h-1.134a2.274 2.274 0 0 0-2.266 2.267v2.266A2.273 2.273 0 0 0 13.933 23h1.134v2.267a3.41 3.41 0 0 0 2.266 3.196V50.2a3.4 3.4 0 0 0 6.8 0V37.733a1.133 1.133 0 0 1 2.267 0v3.4a3.4 3.4 0 1 0 6.8 0V33.2a1.134 1.134 0 0 1 2.267 0v4.533a3.4 3.4 0 1 0 6.8 0v-9.066h6.8V33.2h-1.134a3.41 3.41 0 0 0-3.4 3.4v7.933H40a1.133 1.133 0 0 0-1.133 1.134V50.2A1.134 1.134 0 0 0 40 51.333h1.133v18.134Zm-26.066-51v2.266h-1.134v-2.266h1.134Zm37.4 52.133a1.133 1.133 0 0 1-1.134 1.133h-6.8A1.134 1.134 0 0 1 43.4 70.6V51.333h9.067V70.6Zm2.266-23.8v2.267h-13.6V46.8h13.6Zm17-10.2a1.134 1.134 0 0 1-1.133 1.133H51.333A2.274 2.274 0 0 0 49.067 40v4.533H46.8V36.6a1.134 1.134 0 0 1 1.133-1.133H67.2a2.274 2.274 0 0 0 2.267-2.267V23a2.274 2.274 0 0 0-2.267-2.267h-4.533v-2.266H70.6a1.134 1.134 0 0 1 1.133 1.133v17Z" fill="#63A63E"/>
  <path d="M20.733 55.867a3.4 3.4 0 1 0 0 6.8 3.4 3.4 0 0 0 0-6.8Zm0 4.533a1.133 1.133 0 1 1 0-2.266 1.133 1.133 0 0 1 0 2.266ZM29.8 46.8a3.4 3.4 0 1 0 0 6.8 3.4 3.4 0 0 0 0-6.8Zm0 4.533a1.134 1.134 0 1 1 0-2.267 1.134 1.134 0 0 1 0 2.267ZM19.6 16.2a1.134 1.134 0 0 0 1.133 1.133h30.6a1.133 1.133 0 1 0 0-2.266h-30.6A1.134 1.134 0 0 0 19.6 16.2ZM55.867 17.333H57a1.133 1.133 0 1 0 0-2.266h-1.133a1.134 1.134 0 0 0 0 2.266Z" fill="#63A63E"/>
</svg>
