<svg width="20" height="20" viewBox="0 0 20 20" fill="none" xmlns="http://www.w3.org/2000/svg">
  <path fill-rule="evenodd" clip-rule="evenodd" d="M8.861 6.338c.518-.698.704-1.434.118-2.084C7.664 2.414 6.78 1.276 6.225.73 5.171-.313 3.436-.172 2.523.728c-.49.483-.657.649-1.16 1.16C-1.444 4.697.267 10.63 4.815 15.184c4.548 4.552 10.482 6.264 13.293 3.45.465-.447.858-.841 1.169-1.169.895-.946 1.03-2.604-.006-3.682-.532-.552-1.617-1.393-3.534-2.765-.587-.525-1.284-.411-1.922.007-.307.202-.53.406-.953.828l-.766.767c-.1.1-1.471-.586-2.801-1.917C7.965 9.37 7.279 7.999 7.379 7.899l.767-.768c.134-.134.198-.198.28-.285.171-.18.313-.343.435-.508Zm4.65 7.695.766-.767c.232-.232.383-.375.505-.474 1.68 1.206 2.653 1.965 3.05 2.378.238.248.201.7-.006.919-.287.303-.66.677-1.117 1.118-1.818 1.819-6.608.437-10.479-3.438C2.358 9.893.977 5.103 2.781 3.297c.502-.509.66-.668 1.144-1.144.182-.179.675-.22.896-.001.427.422 1.22 1.436 2.385 3.06-.06.074-.136.159-.228.255-.067.071-.123.128-.246.25l-.766.767c-1.303 1.303-.193 3.52 1.916 5.632 2.107 2.11 4.326 3.22 5.629 1.917ZM11.66.069a9.505 9.505 0 0 1 8.275 8.276l-1.975.33a7.503 7.503 0 0 0-6.63-6.63l.33-1.976ZM11 4.022a5.501 5.501 0 0 1 4.982 4.982L14 9.334a3.5 3.5 0 0 0-3.33-3.33L11 4.022Z" fill="#000"/>
</svg>
