<svg width="80" height="80" viewBox="0 0 80 80" xmlns="http://www.w3.org/2000/svg">
  <path d="M72.988 17.802h-2.974l.003-5.315a6.479 6.479 0 0 0-6.468-6.474L40.985 6h-.003c-1.284 0-2.492.5-3.4 1.409L3.894 41.095A6.428 6.428 0 0 0 2 45.67c0 1.728.673 3.353 1.895 4.576l21.861 21.86A6.452 6.452 0 0 0 30.332 74c1.658 0 3.315-.63 4.577-1.892l21.209-21.21a1.485 1.485 0 1 0-2.1-2.1l-21.21 21.21a3.505 3.505 0 0 1-4.951 0L5.996 48.147A3.48 3.48 0 0 1 4.97 45.67c0-.935.365-1.815 1.026-2.476L39.68 9.509c.348-.347.81-.539 1.301-.539h.001l22.564.013a3.505 3.505 0 0 1 3.5 3.503l-.007 12.445h-6.69a2.073 2.073 0 0 1-1.474-.615 5.449 5.449 0 0 0 1.71-1.157 5.48 5.48 0 0 0 0-7.742 5.48 5.48 0 0 0-7.742 0 5.48 5.48 0 0 0 0 7.742 5.446 5.446 0 0 0 2.79 1.493 5.058 5.058 0 0 0 4.717 3.25h6.688l-.005 7.118c0 .492-.191.953-.538 1.3l-4.077 4.077a1.485 1.485 0 1 0 2.1 2.101l4.077-4.078a4.78 4.78 0 0 0 1.409-3.398l.004-7.12h2.979a5.055 5.055 0 0 0 5.049-5.05 5.055 5.055 0 0 0-5.05-5.05Zm-18.043-.285a2.496 2.496 0 0 1 1.77-.732 2.498 2.498 0 0 1 2.159 1.238 5.07 5.07 0 0 0-3.38 3.449 2.489 2.489 0 0 1-.55-.413 2.507 2.507 0 0 1 0-3.542Zm18.043 7.414H70.01l.003-4.158h2.975c1.146 0 2.079.933 2.079 2.079 0 1.146-.933 2.079-2.08 2.079Z" fill="#fff"/>
  <path d="M25.971 43.47a1.485 1.485 0 0 0 1.829 1.032l15.245-4.243a1.485 1.485 0 0 0-.796-2.861L27.003 41.64a1.486 1.486 0 0 0-1.032 1.829ZM32.682 45.43a4.35 4.35 0 0 0-1.282 3.096 4.35 4.35 0 0 0 1.282 3.096 4.366 4.366 0 0 0 3.096 1.28 4.368 4.368 0 0 0 3.097-1.28 4.384 4.384 0 0 0 0-6.193 4.384 4.384 0 0 0-6.193 0Zm4.092 4.091a1.41 1.41 0 0 1-2.404-.996 1.407 1.407 0 0 1 2.405-.996c.549.55.549 1.444 0 1.992ZM39.61 36.587a4.384 4.384 0 0 0 0-6.193 4.35 4.35 0 0 0-3.096-1.282c-1.17 0-2.27.455-3.096 1.283a4.384 4.384 0 0 0 0 6.192 4.366 4.366 0 0 0 3.096 1.28 4.368 4.368 0 0 0 3.097-1.28Zm-4.092-4.093a1.4 1.4 0 0 1 .996-.412 1.41 1.41 0 0 1 .996 2.405 1.41 1.41 0 0 1-1.992 0 1.411 1.411 0 0 1 0-1.992Z" fill="#fff"/>
  <path d="M16.771 40.4c-.58-.58-1.52-.58-2.1 0l-4.22 4.22a1.485 1.485 0 0 0 0 2.1l18.832 18.833c.29.29.67.434 1.05.434s.76-.145 1.05-.434l28.156-28.157c.58-.58.58-1.52 0-2.1L40.708 16.463a1.485 1.485 0 0 0-2.1 0L23.072 32a1.485 1.485 0 0 0 2.1 2.1l14.486-14.486 16.731 16.732-26.056 26.056L13.6 45.671l3.17-3.17c.58-.58.58-1.52 0-2.1ZM59.268 44.163c-.39 0-.773.159-1.05.435-.276.276-.435.66-.435 1.05s.16.774.435 1.05c.277.276.66.435 1.05.435s.774-.159 1.05-.435c.277-.276.436-.66.436-1.05s-.16-.774-.436-1.05a1.498 1.498 0 0 0-1.05-.435Z" fill="#fff"/>
  <path d="M20.97 38.3a1.487 1.487 0 0 0 0-2.1 1.494 1.494 0 0 0-1.05-.436c-.39 0-.773.16-1.05.436-.276.276-.434.66-.434 1.05 0 .392.158.773.435 1.05a1.486 1.486 0 0 0 2.1 0Z" fill="#fff"/>
</svg>
