<svg width="20" height="20" viewBox="0 0 20 20" fill="none" xmlns="http://www.w3.org/2000/svg">
  <path d="M11.76 12.675c.638-.207 1.454 1.36 2.323 1.96.652.453 1.152.355 1.152.355l2.316-.033s1.21-.075.638-1.036c-.048-.08-.336-.713-1.724-2.015-1.452-1.363-1.255-1.142.493-3.497 1.065-1.436 1.49-2.312 1.357-2.686-.128-.36-.91-.266-.91-.266l-2.61.018c-.253 0-.469.08-.566.344-.002.002-.415 1.11-.964 2.053-1.16 1.993-1.624 2.099-1.816 1.974-.441-.289-.33-1.158-.33-1.776 0-1.932.288-2.737-.564-2.946-.285-.069-.493-.114-1.219-.12-.928-.015-1.716 0-2.163.218-.297.15-.524.475-.386.494.173.023.562.107.77.39.268.369.26 1.194.26 1.194s.152 2.274-.36 2.556c-.353.193-.834-.201-1.87-2.011-.528-.926-.928-1.948-.928-1.948s-.077-.19-.217-.294a1.073 1.073 0 0 0-.4-.163l-2.477.016s-.372.01-.508.175c-.122.145-.01.445-.01.445s1.94 4.588 4.136 6.9c2.014 2.121 4.302 1.98 4.302 1.98h1.037s.313-.036.473-.208c.149-.16.142-.46.142-.46s-.02-1.407.624-1.613Z" fill="#fff"/>
</svg>
