<svg width="23" height="22" viewBox="0 0 23 22" fill="none" xmlns="http://www.w3.org/2000/svg">
  <path d="M11.46.79c-.05 0-.1 0-.15.02a10.44 10.44 0 0 0-4.76 1.2 10.25 10.25 0 0 0-1.94 1.3l-.15.14a10.7 10.7 0 0 0-2.2 2.74A10.33 10.33 0 0 0 .9 11.35a10.61 10.61 0 0 0 3.56 7.9l.15.14c.05.06.12.1.2.14a10.25 10.25 0 0 0 6.5 2.36c.1.04.2.04.3 0a10.44 10.44 0 0 0 4.76-1.2 10.24 10.24 0 0 0 1.95-1.3l.15-.13a9.52 9.52 0 0 0 2.2-2.74 10.32 10.32 0 0 0 1.35-5.17 10.62 10.62 0 0 0-1.86-6 10.7 10.7 0 0 0-1.7-1.9l-.14-.13a10.25 10.25 0 0 0-6.7-2.5.48.48 0 0 0-.16-.03Zm-3.6.64h-.01.01Zm7.2 0h.02-.01Zm-4.08.38v1.92c-.46.03-.92.06-1.35.16L9.3 4l-.66-1.8.53-.16c.58-.14 1.2-.19 1.81-.22Zm.96 0a9.53 9.53 0 0 1 1.82.22l.53.16-.66 1.8-.33-.1c-.43-.1-.9-.13-1.36-.16V1.81Zm-4.2.72.66 1.8-.5.22c-.26.14-.5.33-.74.5a.48.48 0 0 0-.26.12L5.7 3.73A9.3 9.3 0 0 1 7 2.86c.24-.13.5-.23.74-.33Zm7.45 0c.24.1.5.2.73.32.47.25.9.56 1.31.88l-1.2 1.44a.48.48 0 0 0-.27-.12c-.24-.17-.47-.36-.73-.5l-.5-.22.66-1.8ZM4.95 4.33l1.24 1.48c-.38.36-.75.74-1.05 1.18l-.07.12-1.67-.96.16-.25c.4-.58.88-1.1 1.39-1.57Zm13.03 0c.51.48.99 1 1.39 1.57l.15.25-1.66.96-.07-.12c-.3-.44-.67-.82-1.05-1.18l1.24-1.48Zm-7 .36v1.89c-.7.07-1.35.3-1.93.63L7.93 5.68c.14-.09.27-.2.41-.28a6.08 6.08 0 0 1 1.52-.58c.36-.08.74-.1 1.12-.13Zm.96 0c.39.03.77.05 1.13.14a5.9 5.9 0 0 1 1.51.57c.15.08.27.19.41.28L13.88 7.2a4.76 4.76 0 0 0-1.94-.63V4.69Zm-4.8 1.53 1.13 1.56c-.5.45-.92 1.01-1.2 1.64l-1.82-.6a5.79 5.79 0 0 1 .68-1.28 6.79 6.79 0 0 1 1.08-1.22l.07-.06a.48.48 0 0 0 .06-.04Zm8.65 0 .06.04.07.06a6.79 6.79 0 0 1 1.39 1.72c.14.25.26.51.37.79l-1.82.6a4.82 4.82 0 0 0-1.2-1.65l1.13-1.56Zm-12.85.77 1.67.96c-.11.22-.24.44-.32.67l-.06.2a.48.48 0 0 0-.1.36l-.1.37-1.9-.33c.18-.79.45-1.53.81-2.23Zm17.04 0c.36.7.64 1.44.81 2.23l-1.89.33a7.02 7.02 0 0 0-.1-.38.48.48 0 0 0-.1-.34l-.05-.2c-.1-.24-.22-.46-.33-.68l1.66-.96Zm-8.57.53h.11a3.83 3.83 0 0 1 2.1 7 3.83 3.83 0 0 1-5.77-1.88 3.85 3.85 0 0 1-.07-2.36 3.83 3.83 0 0 1 3.63-2.76Zm6.55 2.22c.04.14.09.26.11.4l.02.1.04.3a6.94 6.94 0 0 1 0 1.62c0 .1-.02.2-.04.3a.48.48 0 0 0-.02.1c-.02.14-.07.27-.1.4l-1.82-.59a4.78 4.78 0 0 0 0-2.04l1.81-.59Zm-13 0 1.82.6a4.79 4.79 0 0 0 0 2.03l-1.81.59c-.04-.13-.1-.26-.12-.4a.48.48 0 0 0-.02-.1l-.04-.3a6.93 6.93 0 0 1 0-1.62l.04-.3a.48.48 0 0 0 .02-.1c.03-.14.08-.26.12-.4Zm-3.02.42 1.9.33a7.8 7.8 0 0 0 0 1.72l-1.9.34v-.04a9.64 9.64 0 0 1 0-2.32v-.03Zm19.05 0v.03a9.65 9.65 0 0 1 0 2.33v.03l-1.9-.34a7.8 7.8 0 0 0 0-1.72l1.9-.33Zm-16.96 3a7 7 0 0 0 .1.36c-.01.13.02.26.1.36.02.06.03.14.06.2.08.23.2.45.32.68l-1.67.96a9.35 9.35 0 0 1-.8-2.23l1.89-.34Zm14.87 0 1.9.33a9.35 9.35 0 0 1-.82 2.23l-1.66-.96c.11-.23.24-.45.33-.68l.05-.21c.08-.1.11-.22.1-.34l.1-.38Zm-11.83.12c.28.63.7 1.2 1.2 1.65l-1.13 1.56a.48.48 0 0 0-.06-.04l-.07-.06a6.79 6.79 0 0 1-1.39-1.73 5.79 5.79 0 0 1-.37-.78l1.82-.6Zm8.79 0 1.82.6a6.18 6.18 0 0 1-.68 1.29c-.31.45-.68.86-1.08 1.21l-.07.06a.47.47 0 0 0-.06.05l-1.14-1.56c.51-.46.93-1.02 1.2-1.65ZM9.05 15.5c.58.34 1.23.57 1.93.64v1.89c-.38-.03-.76-.05-1.13-.14a5.87 5.87 0 0 1-1.5-.58c-.15-.08-.28-.19-.42-.27l1.12-1.54Zm4.83 0 1.11 1.54c-.14.08-.26.2-.4.27a6.1 6.1 0 0 1-1.52.58c-.36.09-.74.1-1.13.14v-1.9c.7-.06 1.36-.29 1.94-.63Zm-8.81.1.07.13c.3.43.67.81 1.05 1.18l-1.24 1.47a9.84 9.84 0 0 1-1.4-1.56l-.15-.25 1.67-.96Zm12.79 0 1.66.97-.15.25c-.4.57-.88 1.08-1.39 1.56l-1.24-1.47c.38-.37.75-.75 1.05-1.18l.07-.12ZM6.9 17.55c.07.07.17.1.26.12.25.17.48.35.73.49.17.09.34.15.5.23l-.65 1.8c-.25-.1-.5-.2-.74-.33a9.3 9.3 0 0 1-1.3-.87l1.2-1.44Zm9.13 0 1.2 1.44a9.3 9.3 0 0 1-1.3.87c-.25.13-.5.22-.74.33l-.66-1.8c.17-.08.34-.14.5-.23.26-.14.5-.32.73-.49.1-.01.2-.05.27-.12ZM9.3 18.7l.33.1c.43.1.9.14 1.35.17v1.91a9.54 9.54 0 0 1-1.8-.22h-.01c-.19-.04-.35-.1-.53-.16l.66-1.8Zm4.33 0 .66 1.8c-.18.06-.35.12-.53.16-.58.15-1.2.2-1.82.22v-1.91c.46-.03.93-.06 1.36-.17.11-.02.22-.07.33-.1Zm-5.78 2.56h.01-.01Zm7.23 0h-.01.01Z" fill="#FEFAFA"/>
</svg>
