<svg width="23" height="23" viewBox="0 0 23 23" fill="none" xmlns="http://www.w3.org/2000/svg">
  <path d="M11.04 0C4.948 0 0 4.948 0 11.04c0 6.091 4.948 11.04 11.04 11.04 6.091 0 11.04-4.948 11.04-11.04C22.08 4.948 17.132 0 11.04 0Zm0 .96c5.573 0 10.08 4.507 10.08 10.08s-4.507 10.08-10.08 10.08a10.1 10.1 0 0 1-2.93-.433c.413-.69.946-1.677 1.158-2.492l.643-2.453c.336.641 1.319 1.185 2.365 1.185 3.112 0 5.356-2.863 5.356-6.42 0-3.41-2.783-5.96-6.363-5.96-4.455 0-6.819 2.99-6.819 6.245 0 1.513.805 3.398 2.095 3.998.195.09.3.052.345-.138.034-.143.208-.844.287-1.17a.31.31 0 0 0-.072-.296c-.426-.518-.768-1.468-.768-2.355 0-2.276 1.723-4.48 4.659-4.48 2.535 0 4.31 1.729 4.31 4.2 0 2.791-1.409 4.726-3.243 4.726-1.013 0-1.772-.838-1.528-1.866.291-1.227.855-2.55.855-3.436 0-.792-.426-1.453-1.306-1.453-1.036 0-1.868 1.07-1.868 2.506 0 .913.31 1.532.31 1.532s-1.023 4.325-1.21 5.13c-.188.804-.138 1.887-.06 2.694A10.073 10.073 0 0 1 .96 11.04C.96 5.467 5.467.96 11.04.96Z" fill="#FEFAFA"/>
</svg>
