<svg width="80" height="80" viewBox="0 0 80 80" fill="none" xmlns="http://www.w3.org/2000/svg">
  <path d="M65.449 8.064H39.657a2.913 2.913 0 0 0-2.886 2.54h-3.755a2.506 2.506 0 0 0-2.505 2.5v.207H26.57a6.892 6.892 0 0 0-6.792 5.75H2.122a1.122 1.122 0 1 0 0 2.245h17.656a6.893 6.893 0 0 0 6.792 5.754h3.941v.207a2.506 2.506 0 0 0 2.505 2.501h3.755a2.913 2.913 0 0 0 2.886 2.54h1.688c.275 1.882.709 4.99-1.1 7.864-.47.74-.346 1.297-.16 1.636.185.337.588.739 1.455.739h4.694l-1.318 13.306h-4.45c-4.168 0-7.559 3.382-7.559 7.54v5.624a1.92 1.92 0 0 0 1.92 1.917h28.777a1.92 1.92 0 0 0 1.92-1.917V57.77a1.92 1.92 0 0 0-1.92-1.917h-3.11c.04-2.968.245-5.8.608-8.431a1.122 1.122 0 1 0-2.222-.307c-.378 2.732-.589 5.667-.63 8.738H47.172l1.416-14.309v-.01l.914-9.227h13.975c-1.587 2.868-2.791 6.086-3.662 9.778a1.122 1.122 0 1 0 2.184.515c.937-3.975 2.276-7.354 4.083-10.31 6.405-.33 11.515-5.633 11.515-12.106 0-6.683-5.45-12.12-12.148-12.12Zm-38.88 16.752a4.642 4.642 0 0 1-4.64-4.633c0-2.552 2.082-4.628 4.64-4.628h3.942v9.26H26.57v.001Zm6.186 2.45V13.105a.26.26 0 0 1 .26-.257h3.73v14.677h-3.73a.262.262 0 0 1-.26-.257ZM63.28 68.69H35.151v-5.297c0-2.92 2.385-5.297 5.316-5.297h1.617v2.298c0 2.123 2.323 4.122 4.124 4.122h17.07v4.174h.001Zm0-10.593v4.174H46.21c-.561 0-1.88-.982-1.88-1.878v-2.297h18.95ZM46.456 40.302h-3.724c1.47-3.055 1.148-6.108.88-7.996h3.635l-.791 7.995Zm18.993-10.24h-4.574v-6.841a1.122 1.122 0 1 0-2.244 0v6.84H39.657a.674.674 0 0 1-.668-.663V10.972c0-.36.306-.664.668-.664H58.63v7.743a1.122 1.122 0 1 0 2.244 0v-7.743h4.574c5.46 0 9.903 4.43 9.903 9.875 0 5.448-4.443 9.88-9.903 9.88Z" fill="#63A63E"/>
  <path d="M64.63 17.453c-.62 0-1.122.503-1.122 1.123v3.215a1.122 1.122 0 1 0 2.244 0v-3.215c0-.62-.502-1.123-1.122-1.123ZM69.587 17.453c-.62 0-1.122.503-1.122 1.123v3.215a1.122 1.122 0 1 0 2.244 0v-3.215c0-.62-.502-1.123-1.122-1.123ZM50.737 13.087h-5.054a3.871 3.871 0 0 0-3.87 3.864 3.871 3.871 0 0 0 3.87 3.863h5.054a3.869 3.869 0 0 0 3.866-3.863 3.87 3.87 0 0 0-3.866-3.864Zm0 5.483h-5.054a1.625 1.625 0 0 1-1.626-1.62c0-.893.729-1.62 1.626-1.62h5.054c.895 0 1.622.727 1.622 1.62 0 .894-.727 1.62-1.622 1.62Z" fill="#63A63E"/>
</svg>
