<svg width="20" height="20" viewBox="0 0 20 20" xmlns="http://www.w3.org/2000/svg">
  <path fill-rule="evenodd" clip-rule="evenodd" d="M10 20C4.477 20 0 15.523 0 10S4.477 0 10 0s10 4.477 10 10-4.477 10-10 10Zm6.727-5.341a8.182 8.182 0 1 0-13.454 0c1.023-1.351 3.426-1.931 6.724-1.932-2.034-.001-3.633-1.43-3.633-4.545 0-2.04 1.435-3.637 3.636-3.637 2.195 0 3.636 1.747 3.636 3.819 0 2.981-1.62 4.363-3.636 4.363 3.3 0 5.704.58 6.727 1.932Zm-1.305 1.468c-.266-.957-2.177-1.581-5.422-1.581-3.245 0-5.156.624-5.422 1.581A8.151 8.151 0 0 0 10 18.182a8.15 8.15 0 0 0 5.422-2.055Zm-7.24-7.945c0 2.063.744 2.727 1.818 2.727 1.07 0 1.818-.638 1.818-2.545 0-1.136-.713-2-1.818-2-1.151 0-1.818.741-1.818 1.818Z" fill="#fff" opacity="0.8"/>
</svg>
