<svg width="80" height="80" viewBox="0 0 80 80" fill="none" xmlns="http://www.w3.org/2000/svg">
  <path d="M70.562 38.789a14.02 14.02 0 0 1-11.69-6.257l-.936-1.405-.938 1.405a14.02 14.02 0 0 1-11.69 6.257h-4.267v18.06c0 4.366 1.966 8.47 5.25 11.223H23.02v-4.505h14.641V43.294H14.01v9.01H7.253V7.253h49.556v20.273h2.253V5H5v48.897l16.428 16.428h28.325L57.936 75l9.517-5.438A14.674 14.674 0 0 0 74.83 56.85V38.789h-4.268Zm-49.794 27.69L8.845 54.558h11.923V66.48Zm-4.505-14.175v-6.758H35.41v15.769H23.02v-9.01h-6.757Zm56.314 4.546c0 4.435-2.392 8.556-6.242 10.757l-8.4 4.8-8.4-4.8a12.418 12.418 0 0 1-6.241-10.757V41.04h2.015c4.933 0 9.546-2.213 12.627-5.99a16.267 16.267 0 0 0 12.626 5.99h2.015V56.85Z" fill="#63A63E"/>
  <path d="M68.072 50.052v6.798a7.902 7.902 0 0 1-3.972 6.846l1.117 1.955a10.158 10.158 0 0 0 5.108-8.801v-6.798h-2.253ZM11.758 9.505v6.758h40.546V9.505H11.758ZM50.05 14.01h-36.04v-2.252h36.04v2.252ZM67.276 43.624 52.304 58.596l-3.709-3.71-1.592 1.593 5.301 5.302 16.564-16.564-1.592-1.593ZM33.157 47.799H18.516v2.252h14.641V47.8ZM33.157 52.304h-7.884v2.253h7.884v-2.253ZM33.157 56.81h-7.884v2.252h7.884v-2.253ZM47.799 20.768H11.758v2.253h36.04v-2.253ZM47.799 25.273H11.758v2.253h36.04v-2.253ZM47.799 29.778H11.758v2.253h36.04v-2.253ZM33.157 34.283h-21.4v2.253h21.4v-2.253ZM33.157 38.789h-21.4v2.252h21.4V38.79ZM52.304 20.768h-2.253v2.253h2.253v-2.253ZM52.304 25.273h-2.253v2.253h2.253v-2.253ZM52.304 29.778h-2.253v2.253h2.253v-2.253ZM37.662 34.283H35.41v2.253h2.252v-2.253ZM37.662 38.789H35.41v2.252h2.252V38.79Z" fill="#63A63E"/>
</svg>
